<?xml version="1.0" encoding="UTF-8" standalone="no"?>
<svg
   id="Capa_1"
   data-name="Capa 1"
   viewBox="0 0 3686400 1166400"
   version="1.1"
   sodipodi:docname="Icono Xuma.svg"
   width="3686400"
   height="1166400"
   xmlns:inkscape="http://www.inkscape.org/namespaces/inkscape"
   xmlns:sodipodi="http://sodipodi.sourceforge.net/DTD/sodipodi-0.dtd"
   xmlns="http://www.w3.org/2000/svg"
   xmlns:svg="http://www.w3.org/2000/svg">
  <sodipodi:namedview
     id="namedview4"
     pagecolor="#ffffff"
     bordercolor="#000000"
     borderopacity="0.25"
     inkscape:showpageshadow="2"
     inkscape:pageopacity="0.0"
     inkscape:pagecheckerboard="0"
     inkscape:deskcolor="#d1d1d1" />
  <defs
     id="defs1">
    <style
       id="style1">
      .cls-1 {
        fill: #00cd93;
      }

      .cls-1, .cls-2, .cls-3 {
        stroke-width: 0px;
      }

      .cls-2 {
        fill: #5ae280;
      }

      .cls-3 {
        fill: #120180;
      }
    </style>
  </defs>
  <g
     id="g2"
     style="fill:#b3b3b3"
     inkscape:export-filename="..\..\..\Soluciones Integrales BI\Diseño\g2.svg"
     inkscape:export-xdpi="96"
     inkscape:export-ydpi="96">
    <path
       class="cls-3"
       d="M 940.03,677.32 800.95,816.4 c -32.41,32.41 -84.94,32.41 -117.35,0 v 0 c -32.41,-32.41 -32.41,-84.94 0,-117.35 L 822.68,559.97 Z"
       id="path1"
       style="fill:#b3b3b3" />
    <path
       class="cls-3"
       d="m 1037.02,734.37 -55.76,-55.76 117.35,-117.35 55.76,55.76 c 32.41,32.41 32.41,84.94 0,117.35 v 0 c -32.41,32.41 -84.94,32.41 -117.35,0 z"
       id="path2"
       style="fill:#b3b3b3" />
  </g>
  <g
     id="g4">
    <path
       class="cls-1"
       d="M 960,657.35 765.63,462.98 c -32.41,-32.41 -32.41,-84.94 0,-117.35 v 0 c 32.41,-32.41 84.94,-32.41 117.35,0 L 1077.35,540 Z"
       id="path3"
       style="fill:#b3b3b3" />
    <path
       class="cls-2"
       d="M 1236.4,380.95 960,657.35 842.65,540 1119.05,263.6 c 32.41,-32.41 84.94,-32.41 117.35,0 v 0 c 32.41,32.41 32.41,84.94 0,117.35 z"
       id="path4"
       style="fill:#b3b3b3" />
    <path
       class="cls-2"
       d="m 1445.778,641.70481 -0.8854,200.23393 -70.968,-0.45029 0.8854,-200.23392 c 0.1038,-23.47895 16.0718,-42.40546 35.6719,-42.2811 v 0 c 19.6001,0.12436 35.3999,19.25243 35.2961,42.73138 z"
       id="path4-8"
       style="fill:#b3b3b3;stroke-width:0px" />
    <path
       class="cls-2"
       d="m 1367.3588,668.94559 -0.8854,170.24416 -70.968,-0.38285 0.8854,-170.24415 c 0.1038,-19.96243 16.0718,-36.05424 35.6719,-35.94851 v 0 c 19.6001,0.10573 35.3999,16.36892 35.2961,36.33135 z"
       id="path4-8-8"
       style="fill:#b3b3b3;stroke-width:0px" />
    <path
       class="cls-2"
       d="m 1290.088,704.65776 -0.8213,133.82802 -65.8335,-0.30096 0.8213,-133.82801 c 0.096,-15.69235 14.909,-28.34204 33.0911,-28.25893 v 0 c 18.182,0.0831 32.8387,12.86752 32.7424,28.55988 z"
       id="path4-8-8-9"
       style="fill:#b3b3b3;stroke-width:0px" />
  </g>
</svg>
